<?xml version="1.0" encoding="utf-8" standalone="no"?>
<!DOCTYPE svg PUBLIC "-//W3C//DTD SVG 1.1//EN"
  "http://www.w3.org/Graphics/SVG/1.1/DTD/svg11.dtd">
<svg xmlns:xlink="http://www.w3.org/1999/xlink" width="460.8pt" height="345.6pt" viewBox="0 0 460.8 345.6" xmlns="http://www.w3.org/2000/svg" version="1.1">
 <metadata>
  <rdf:RDF xmlns:dc="http://purl.org/dc/elements/1.1/" xmlns:cc="http://creativecommons.org/ns#" xmlns:rdf="http://www.w3.org/1999/02/22-rdf-syntax-ns#">
   <cc:Work>
    <dc:type rdf:resource="http://purl.org/dc/dcmitype/StillImage"/>
    <dc:date>2025-07-22T12:59:40.517463</dc:date>
    <dc:format>image/svg+xml</dc:format>
    <dc:creator>
     <cc:Agent>
      <dc:title>Matplotlib v3.10.3, https://matplotlib.org/</dc:title>
     </cc:Agent>
    </dc:creator>
   </cc:Work>
  </rdf:RDF>
 </metadata>
 <defs>
  <style type="text/css">*{stroke-linejoin: round; stroke-linecap: butt}</style>
 </defs>
 <g id="figure_1">
  <g id="patch_1">
   <path d="M 0 345.6 
L 460.8 345.6 
L 460.8 0 
L 0 0 
L 0 345.6 
z
" style="fill: none"/>
  </g>
  <g id="axes_1">
   <g id="FillBetweenPolyCollection_1">
    <defs>
     <path id="m6e174da7bd" d="M 20.945455 -15.709091 
L 20.945455 -17.826042 
L 21.364783 -17.868807 
L 21.784111 -17.912348 
L 22.20344 -17.956676 
L 22.622768 -18.001805 
L 23.042097 -18.047746 
L 23.461425 -18.094512 
L 23.880753 -18.142115 
L 24.300082 -18.190569 
L 24.71941 -18.239887 
L 25.138739 -18.290081 
L 25.558067 -18.341165 
L 25.977396 -18.393153 
L 26.396724 -18.446058 
L 26.816052 -18.499894 
L 27.235381 -18.554674 
L 27.654709 -18.610414 
L 28.074038 -18.667127 
L 28.493366 -18.724828 
L 28.912695 -18.783531 
L 29.332023 -18.843251 
L 29.751351 -18.904003 
L 30.17068 -18.965802 
L 30.590008 -19.028664 
L 31.009337 -19.092603 
L 31.428665 -19.157636 
L 31.847993 -19.223777 
L 32.267322 -19.291044 
L 32.68665 -19.359452 
L 33.105979 -19.429017 
L 33.525307 -19.499756 
L 33.944636 -19.571685 
L 34.363964 -19.644821 
L 34.783292 -19.719182 
L 35.202621 -19.794783 
L 35.621949 -19.871644 
L 36.041278 -19.94978 
L 36.460606 -20.029209 
L 36.879934 -20.10995 
L 37.299263 -20.19202 
L 37.718591 -20.275438 
L 38.13792 -20.360222 
L 38.557248 -20.446389 
L 38.976577 -20.53396 
L 39.395905 -20.622953 
L 39.815233 -20.713386 
L 40.234562 -20.80528 
L 40.65389 -20.898653 
L 41.073219 -20.993525 
L 41.492547 -21.089916 
L 41.911876 -21.187845 
L 42.331204 -21.287333 
L 42.750532 -21.3884 
L 43.169861 -21.491066 
L 43.589189 -21.595353 
L 44.008518 -21.70128 
L 44.427846 -21.808869 
L 44.847174 -21.918141 
L 45.266503 -22.029117 
L 45.685831 -22.141818 
L 46.10516 -22.256267 
L 46.524488 -22.372485 
L 46.943817 -22.490495 
L 47.363145 -22.610317 
L 47.782473 -22.731976 
L 48.201802 -22.855492 
L 48.62113 -22.98089 
L 49.040459 -23.108191 
L 49.459787 -23.237419 
L 49.879115 -23.368597 
L 50.298444 -23.501749 
L 50.717772 -23.636897 
L 51.137101 -23.774066 
L 51.556429 -23.91328 
L 51.975758 -24.054562 
L 52.395086 -24.197937 
L 52.814414 -24.343429 
L 53.233743 -24.491062 
L 53.653071 -24.640862 
L 54.0724 -24.792853 
L 54.491728 -24.94706 
L 54.911057 -25.103509 
L 55.330385 -25.262224 
L 55.749713 -25.423231 
L 56.169042 -25.586556 
L 56.58837 -25.752224 
L 57.007699 -25.920262 
L 57.427027 -26.090695 
L 57.846355 -26.26355 
L 58.265684 -26.438852 
L 58.685012 -26.61663 
L 59.104341 -26.796908 
L 59.523669 -26.979714 
L 59.942998 -27.165075 
L 60.362326 -27.353018 
L 60.781654 -27.54357 
L 61.200983 -27.736758 
L 61.620311 -27.93261 
L 62.03964 -28.131153 
L 62.458968 -28.332415 
L 62.878296 -28.536424 
L 63.297625 -28.743207 
L 63.716953 -28.952793 
L 64.136282 -29.16521 
L 64.55561 -29.380485 
L 64.974939 -29.598649 
L 65.394267 -29.819727 
L 65.813595 -30.043751 
L 66.232924 -30.270747 
L 66.652252 -30.500745 
L 67.071581 -30.733773 
L 67.490909 -30.969861 
L 67.910238 -31.209038 
L 68.329566 -31.451332 
L 68.748894 -31.696773 
L 69.168223 -31.945389 
L 69.587551 -32.197211 
L 70.00688 -32.452268 
L 70.426208 -32.710588 
L 70.845536 -32.972203 
L 71.264865 -33.23714 
L 71.684193 -33.50543 
L 72.103522 -33.777102 
L 72.52285 -34.052187 
L 72.942179 -34.330713 
L 73.361507 -34.612711 
L 73.780835 -34.89821 
L 74.200164 -35.18724 
L 74.619492 -35.479831 
L 75.038821 -35.776013 
L 75.458149 -36.075816 
L 75.877477 -36.37927 
L 76.296806 -36.686404 
L 76.716134 -36.997248 
L 77.135463 -37.311832 
L 77.554791 -37.630187 
L 77.97412 -37.952342 
L 78.393448 -38.278327 
L 78.812776 -38.608171 
L 79.232105 -38.941904 
L 79.651433 -39.279557 
L 80.070762 -39.621159 
L 80.49009 -39.966739 
L 80.909419 -40.316327 
L 81.328747 -40.669953 
L 81.748075 -41.027645 
L 82.167404 -41.389435 
L 82.586732 -41.75535 
L 83.006061 -42.12542 
L 83.425389 -42.499675 
L 83.844717 -42.878143 
L 84.264046 -43.260853 
L 84.683374 -43.647834 
L 85.102703 -44.039115 
L 85.522031 -44.434725 
L 85.94136 -44.834691 
L 86.360688 -45.239043 
L 86.780016 -45.647809 
L 87.199345 -46.061017 
L 87.618673 -46.478694 
L 88.038002 -46.900869 
L 88.45733 -47.327569 
L 88.876658 -47.758821 
L 89.295987 -48.194654 
L 89.715315 -48.635093 
L 90.134644 -49.080167 
L 90.553972 -49.529901 
L 90.973301 -49.984322 
L 91.392629 -50.443457 
L 91.811957 -50.907331 
L 92.231286 -51.375971 
L 92.650614 -51.849402 
L 93.069943 -52.327649 
L 93.489271 -52.810738 
L 93.9086 -53.298694 
L 94.327928 -53.79154 
L 94.747256 -54.289302 
L 95.166585 -54.792004 
L 95.585913 -55.299669 
L 96.005242 -55.812321 
L 96.42457 -56.329983 
L 96.843898 -56.852678 
L 97.263227 -57.380429 
L 97.682555 -57.913258 
L 98.101884 -58.451186 
L 98.521212 -58.994236 
L 98.940541 -59.542429 
L 99.359869 -60.095785 
L 99.779197 -60.654326 
L 100.198526 -61.218071 
L 100.617854 -61.78704 
L 101.037183 -62.361252 
L 101.456511 -62.940728 
L 101.875839 -63.525484 
L 102.295168 -64.11554 
L 102.714496 -64.710913 
L 103.133825 -65.311621 
L 103.553153 -65.91768 
L 103.972482 -66.529108 
L 104.39181 -67.14592 
L 104.811138 -67.768131 
L 105.230467 -68.395758 
L 105.649795 -69.028814 
L 106.069124 -69.667314 
L 106.488452 -70.311271 
L 106.907781 -70.960699 
L 107.327109 -71.61561 
L 107.746437 -72.276017 
L 108.165766 -72.941932 
L 108.585094 -73.613364 
L 109.004423 -74.290326 
L 109.423751 -74.972826 
L 109.843079 -75.660876 
L 110.262408 -76.354482 
L 110.681736 -77.053655 
L 111.101065 -77.758401 
L 111.520393 -78.468728 
L 111.939722 -79.184643 
L 112.35905 -79.906151 
L 112.778378 -80.633258 
L 113.197707 -81.365969 
L 113.617035 -82.104288 
L 114.036364 -82.848218 
L 114.455692 -83.597763 
L 114.87502 -84.352924 
L 115.294349 -85.113704 
L 115.713677 -85.880102 
L 116.133006 -86.652121 
L 116.552334 -87.429758 
L 116.971663 -88.213013 
L 117.390991 -89.001885 
L 117.810319 -89.79637 
L 118.229648 -90.596466 
L 118.648976 -91.402168 
L 119.068305 -92.213473 
L 119.487633 -93.030374 
L 119.906962 -93.852866 
L 120.32629 -94.680942 
L 120.745618 -95.514594 
L 121.164947 -96.353815 
L 121.584275 -97.198594 
L 122.003604 -98.048922 
L 122.422932 -98.904788 
L 122.84226 -99.766182 
L 123.261589 -100.633091 
L 123.680917 -101.505501 
L 124.100246 -102.3834 
L 124.519574 -103.266772 
L 124.938903 -104.155602 
L 125.358231 -105.049875 
L 125.777559 -105.949572 
L 126.196888 -106.854676 
L 126.616216 -107.765169 
L 127.035545 -108.681031 
L 127.454873 -109.602241 
L 127.874201 -110.528779 
L 128.29353 -111.460622 
L 128.712858 -112.397747 
L 129.132187 -113.340131 
L 129.551515 -114.287748 
L 129.970844 -115.240574 
L 130.390172 -116.198582 
L 130.8095 -117.161745 
L 131.228829 -118.130034 
L 131.648157 -119.103421 
L 132.067486 -120.081875 
L 132.486814 -121.065366 
L 132.906143 -122.053862 
L 133.325471 -123.04733 
L 133.744799 -124.045736 
L 134.164128 -125.049047 
L 134.583456 -126.057227 
L 135.002785 -127.070239 
L 135.422113 -128.088047 
L 135.841441 -129.110612 
L 136.26077 -130.137895 
L 136.680098 -131.169856 
L 137.099427 -132.206455 
L 137.518755 -133.247649 
L 137.938084 -134.293395 
L 138.357412 -135.343651 
L 138.77674 -136.398371 
L 139.196069 -137.45751 
L 139.615397 -138.521021 
L 140.034726 -139.588857 
L 140.454054 -140.66097 
L 140.873382 -141.737309 
L 141.292711 -142.817826 
L 141.712039 -143.902469 
L 142.131368 -144.991185 
L 142.550696 -146.083922 
L 142.970025 -147.180626 
L 143.389353 -148.281242 
L 143.808681 -149.385713 
L 144.22801 -150.493984 
L 144.647338 -151.605996 
L 145.066667 -152.72169 
L 145.485995 -153.841009 
L 145.905324 -154.963889 
L 146.324652 -156.090272 
L 146.74398 -157.220093 
L 147.163309 -158.35329 
L 147.582637 -159.489798 
L 148.001966 -160.629553 
L 148.421294 -161.772489 
L 148.840622 -162.918538 
L 149.259951 -164.067633 
L 149.679279 -165.219705 
L 150.098608 -166.374685 
L 150.517936 -167.532502 
L 150.937265 -168.693085 
L 151.356593 -169.856361 
L 151.775921 -171.022257 
L 152.19525 -172.1907 
L 152.614578 -173.361614 
L 153.033907 -174.534924 
L 153.453235 -175.710553 
L 153.872563 -176.888424 
L 154.291892 -178.068459 
L 154.71122 -179.250578 
L 155.130549 -180.434701 
L 155.549877 -181.620748 
L 155.969206 -182.808638 
L 156.388534 -183.998287 
L 156.807862 -185.189613 
L 157.227191 -186.382532 
L 157.646519 -187.576958 
L 158.065848 -188.772807 
L 158.485176 -189.969992 
L 158.904505 -191.168427 
L 159.323833 -192.368022 
L 159.743161 -193.56869 
L 160.16249 -194.770342 
L 160.581818 -195.972887 
L 161.001147 -197.176235 
L 161.420475 -198.380294 
L 161.839803 -199.584972 
L 162.259132 -200.790177 
L 162.67846 -201.995814 
L 163.097789 -203.201791 
L 163.517117 -204.408011 
L 163.936446 -205.61438 
L 164.355774 -206.820801 
L 164.775102 -208.027178 
L 165.194431 -209.233414 
L 165.613759 -210.43941 
L 166.033088 -211.645069 
L 166.452416 -212.85029 
L 166.871744 -214.054975 
L 167.291073 -215.259024 
L 167.710401 -216.462335 
L 168.12973 -217.664808 
L 168.549058 -218.866341 
L 168.968387 -220.066831 
L 169.387715 -221.266177 
L 169.807043 -222.464274 
L 170.226372 -223.661019 
L 170.6457 -224.856309 
L 171.065029 -226.050039 
L 171.484357 -227.242103 
L 171.903686 -228.432397 
L 172.323014 -229.620815 
L 172.742342 -230.807251 
L 173.161671 -231.991598 
L 173.580999 -233.173751 
L 174.000328 -234.353601 
L 174.419656 -235.531042 
L 174.838984 -236.705966 
L 175.258313 -237.878265 
L 175.677641 -239.047831 
L 176.09697 -240.214556 
L 176.516298 -241.37833 
L 176.935627 -242.539046 
L 177.354955 -243.696594 
L 177.774283 -244.850865 
L 178.193612 -246.001749 
L 178.61294 -247.149137 
L 179.032269 -248.29292 
L 179.451597 -249.432988 
L 179.870925 -250.56923 
L 180.290254 -251.701538 
L 180.709582 -252.8298 
L 181.128911 -253.953908 
L 181.548239 -255.073751 
L 181.967568 -256.189218 
L 182.386896 -257.300201 
L 182.806224 -258.406589 
L 183.225553 -259.508272 
L 183.644881 -260.60514 
L 184.06421 -261.697083 
L 184.483538 -262.783993 
L 184.902867 -263.865758 
L 185.322195 -264.942271 
L 185.741523 -266.01342 
L 186.160852 -267.079099 
L 186.58018 -268.139197 
L 186.999509 -269.193605 
L 187.418837 -270.242216 
L 187.838165 -271.284921 
L 188.257494 -272.321613 
L 188.676822 -273.352183 
L 189.096151 -274.376524 
L 189.515479 -275.394529 
L 189.934808 -276.406092 
L 190.354136 -277.411106 
L 190.773464 -278.409465 
L 191.192793 -279.401064 
L 191.612121 -280.385797 
L 192.03145 -281.36356 
L 192.450778 -282.334248 
L 192.870106 -283.297758 
L 193.289435 -284.253986 
L 193.708763 -285.20283 
L 194.128092 -286.144187 
L 194.54742 -287.077955 
L 194.966749 -288.004034 
L 195.386077 -288.922322 
L 195.805405 -289.832721 
L 196.224734 -290.735129 
L 196.644062 -291.629449 
L 197.063391 -292.515583 
L 197.482719 -293.393433 
L 197.902048 -294.262901 
L 198.321376 -295.123894 
L 198.740704 -295.976314 
L 199.160033 -296.820067 
L 199.579361 -297.65506 
L 199.99869 -298.481199 
L 200.418018 -299.298392 
L 200.837346 -300.106549 
L 201.256675 -300.905577 
L 201.676003 -301.695387 
L 202.095332 -302.475891 
L 202.51466 -303.247001 
L 202.933989 -304.008628 
L 203.353317 -304.760688 
L 203.772645 -305.503094 
L 204.191974 -306.235762 
L 204.611302 -306.958609 
L 205.030631 -307.671552 
L 205.449959 -308.374511 
L 205.869287 -309.067403 
L 206.288616 -309.750151 
L 206.707944 -310.422676 
L 207.127273 -311.084899 
L 207.546601 -311.736746 
L 207.96593 -312.37814 
L 208.385258 -313.009008 
L 208.804586 -313.629277 
L 209.223915 -314.238874 
L 209.643243 -314.837729 
L 210.062572 -315.425773 
L 210.4819 -316.002937 
L 210.901229 -316.569153 
L 211.320557 -317.124356 
L 211.739885 -317.668481 
L 212.159214 -318.201464 
L 212.578542 -318.723242 
L 212.997871 -319.233755 
L 213.417199 -319.732943 
L 213.836527 -320.220746 
L 214.255856 -320.697108 
L 214.675184 -321.161972 
L 215.094513 -321.615284 
L 215.513841 -322.05699 
L 215.93317 -322.487038 
L 216.352498 -322.905376 
L 216.771826 -323.311957 
L 217.191155 -323.70673 
L 217.610483 -324.08965 
L 218.029812 -324.460671 
L 218.44914 -324.819749 
L 218.868468 -325.166841 
L 219.287797 -325.501906 
L 219.707125 -325.824904 
L 220.126454 -326.135797 
L 220.545782 -326.434547 
L 220.965111 -326.721119 
L 221.384439 -326.995479 
L 221.803767 -327.257593 
L 222.223096 -327.507431 
L 222.642424 -327.744963 
L 223.061753 -327.97016 
L 223.481081 -328.182996 
L 223.90041 -328.383444 
L 224.319738 -328.571481 
L 224.739066 -328.747084 
L 225.158395 -328.910232 
L 225.577723 -329.060906 
L 225.997052 -329.199087 
L 226.41638 -329.32476 
L 226.835708 -329.437908 
L 227.255037 -329.538518 
L 227.674365 -329.626579 
L 228.093694 -329.702079 
L 228.513022 -329.76501 
L 228.932351 -329.815364 
L 229.351679 -329.853134 
L 229.771007 -329.878317 
L 230.190336 -329.890909 
L 230.609664 -329.890909 
L 231.028993 -329.878317 
L 231.448321 -329.853134 
L 231.867649 -329.815364 
L 232.286978 -329.76501 
L 232.706306 -329.702079 
L 233.125635 -329.626579 
L 233.544963 -329.538518 
L 233.964292 -329.437908 
L 234.38362 -329.32476 
L 234.802948 -329.199087 
L 235.222277 -329.060906 
L 235.641605 -328.910232 
L 236.060934 -328.747084 
L 236.480262 -328.571481 
L 236.89959 -328.383444 
L 237.318919 -328.182996 
L 237.738247 -327.97016 
L 238.157576 -327.744963 
L 238.576904 -327.507431 
L 238.996233 -327.257593 
L 239.415561 -326.995479 
L 239.834889 -326.721119 
L 240.254218 -326.434547 
L 240.673546 -326.135797 
L 241.092875 -325.824904 
L 241.512203 -325.501906 
L 241.931532 -325.166841 
L 242.35086 -324.819749 
L 242.770188 -324.460671 
L 243.189517 -324.08965 
L 243.608845 -323.70673 
L 244.028174 -323.311957 
L 244.447502 -322.905376 
L 244.86683 -322.487038 
L 245.286159 -322.05699 
L 245.705487 -321.615284 
L 246.124816 -321.161972 
L 246.544144 -320.697108 
L 246.963473 -320.220746 
L 247.382801 -319.732943 
L 247.802129 -319.233755 
L 248.221458 -318.723242 
L 248.640786 -318.201464 
L 249.060115 -317.668481 
L 249.479443 -317.124356 
L 249.898771 -316.569153 
L 250.3181 -316.002937 
L 250.737428 -315.425773 
L 251.156757 -314.837729 
L 251.576085 -314.238874 
L 251.995414 -313.629277 
L 252.414742 -313.009008 
L 252.83407 -312.37814 
L 253.253399 -311.736746 
L 253.672727 -311.084899 
L 254.092056 -310.422676 
L 254.511384 -309.750151 
L 254.930713 -309.067403 
L 255.350041 -308.374511 
L 255.769369 -307.671552 
L 256.188698 -306.958609 
L 256.608026 -306.235762 
L 257.027355 -305.503094 
L 257.446683 -304.760688 
L 257.866011 -304.008628 
L 258.28534 -303.247001 
L 258.704668 -302.475891 
L 259.123997 -301.695387 
L 259.543325 -300.905577 
L 259.962654 -300.106549 
L 260.381982 -299.298392 
L 260.80131 -298.481199 
L 261.220639 -297.65506 
L 261.639967 -296.820067 
L 262.059296 -295.976314 
L 262.478624 -295.123894 
L 262.897952 -294.262901 
L 263.317281 -293.393433 
L 263.736609 -292.515583 
L 264.155938 -291.629449 
L 264.575266 -290.735129 
L 264.994595 -289.832721 
L 265.413923 -288.922322 
L 265.833251 -288.004034 
L 266.25258 -287.077955 
L 266.671908 -286.144187 
L 267.091237 -285.20283 
L 267.510565 -284.253986 
L 267.929894 -283.297758 
L 268.349222 -282.334248 
L 268.76855 -281.36356 
L 269.187879 -280.385797 
L 269.607207 -279.401064 
L 270.026536 -278.409465 
L 270.445864 -277.411106 
L 270.865192 -276.406092 
L 271.284521 -275.394529 
L 271.703849 -274.376524 
L 272.123178 -273.352183 
L 272.542506 -272.321613 
L 272.961835 -271.284921 
L 273.381163 -270.242216 
L 273.800491 -269.193605 
L 274.21982 -268.139197 
L 274.639148 -267.079099 
L 275.058477 -266.01342 
L 275.477805 -264.942271 
L 275.897133 -263.865758 
L 276.316462 -262.783993 
L 276.73579 -261.697083 
L 277.155119 -260.60514 
L 277.574447 -259.508272 
L 277.993776 -258.406589 
L 278.413104 -257.300201 
L 278.832432 -256.189218 
L 279.251761 -255.073751 
L 279.671089 -253.953908 
L 280.090418 -252.8298 
L 280.509746 -251.701538 
L 280.929075 -250.56923 
L 281.348403 -249.432988 
L 281.767731 -248.29292 
L 282.18706 -247.149137 
L 282.606388 -246.001749 
L 283.025717 -244.850865 
L 283.445045 -243.696594 
L 283.864373 -242.539046 
L 284.283702 -241.37833 
L 284.70303 -240.214556 
L 285.122359 -239.047831 
L 285.541687 -237.878265 
L 285.961016 -236.705966 
L 286.380344 -235.531042 
L 286.799672 -234.353601 
L 287.219001 -233.173751 
L 287.638329 -231.991598 
L 288.057658 -230.807251 
L 288.476986 -229.620815 
L 288.896314 -228.432397 
L 289.315643 -227.242103 
L 289.734971 -226.050039 
L 290.1543 -224.856309 
L 290.573628 -223.661019 
L 290.992957 -222.464274 
L 291.412285 -221.266177 
L 291.831613 -220.066831 
L 292.250942 -218.866341 
L 292.67027 -217.664808 
L 293.089599 -216.462335 
L 293.508927 -215.259024 
L 293.928256 -214.054975 
L 294.347584 -212.85029 
L 294.766912 -211.645069 
L 295.186241 -210.43941 
L 295.605569 -209.233414 
L 296.024898 -208.027178 
L 296.444226 -206.820801 
L 296.863554 -205.61438 
L 297.282883 -204.408011 
L 297.702211 -203.201791 
L 298.12154 -201.995814 
L 298.540868 -200.790177 
L 298.960197 -199.584972 
L 299.379525 -198.380294 
L 299.798853 -197.176235 
L 300.218182 -195.972887 
L 300.63751 -194.770342 
L 301.056839 -193.56869 
L 301.476167 -192.368022 
L 301.895495 -191.168427 
L 302.314824 -189.969992 
L 302.734152 -188.772807 
L 303.153481 -187.576958 
L 303.572809 -186.382532 
L 303.992138 -185.189613 
L 304.411466 -183.998287 
L 304.830794 -182.808638 
L 305.250123 -181.620748 
L 305.669451 -180.434701 
L 306.08878 -179.250578 
L 306.508108 -178.068459 
L 306.927437 -176.888424 
L 307.346765 -175.710553 
L 307.766093 -174.534924 
L 308.185422 -173.361614 
L 308.60475 -172.1907 
L 309.024079 -171.022257 
L 309.443407 -169.856361 
L 309.862735 -168.693085 
L 310.282064 -167.532502 
L 310.701392 -166.374685 
L 311.120721 -165.219705 
L 311.540049 -164.067633 
L 311.959378 -162.918538 
L 312.378706 -161.772489 
L 312.798034 -160.629553 
L 313.217363 -159.489798 
L 313.636691 -158.35329 
L 314.05602 -157.220093 
L 314.475348 -156.090272 
L 314.894676 -154.963889 
L 315.314005 -153.841009 
L 315.733333 -152.72169 
L 316.152662 -151.605996 
L 316.57199 -150.493984 
L 316.991319 -149.385713 
L 317.410647 -148.281242 
L 317.829975 -147.180626 
L 318.249304 -146.083922 
L 318.668632 -144.991185 
L 319.087961 -143.902469 
L 319.507289 -142.817826 
L 319.926618 -141.737309 
L 320.345946 -140.66097 
L 320.765274 -139.588857 
L 321.184603 -138.521021 
L 321.603931 -137.45751 
L 322.02326 -136.398371 
L 322.442588 -135.343651 
L 322.861916 -134.293395 
L 323.281245 -133.247649 
L 323.700573 -132.206455 
L 324.119902 -131.169856 
L 324.53923 -130.137895 
L 324.958559 -129.110612 
L 325.377887 -128.088047 
L 325.797215 -127.070239 
L 326.216544 -126.057227 
L 326.635872 -125.049047 
L 327.055201 -124.045736 
L 327.474529 -123.04733 
L 327.893857 -122.053862 
L 328.313186 -121.065366 
L 328.732514 -120.081875 
L 329.151843 -119.103421 
L 329.571171 -118.130034 
L 329.9905 -117.161745 
L 330.409828 -116.198582 
L 330.829156 -115.240574 
L 331.248485 -114.287748 
L 331.667813 -113.340131 
L 332.087142 -112.397747 
L 332.50647 -111.460622 
L 332.925799 -110.528779 
L 333.345127 -109.602241 
L 333.764455 -108.681031 
L 334.183784 -107.765169 
L 334.603112 -106.854676 
L 335.022441 -105.949572 
L 335.441769 -105.049875 
L 335.861097 -104.155602 
L 336.280426 -103.266772 
L 336.699754 -102.3834 
L 337.119083 -101.505501 
L 337.538411 -100.633091 
L 337.95774 -99.766182 
L 338.377068 -98.904788 
L 338.796396 -98.048922 
L 339.215725 -97.198594 
L 339.635053 -96.353815 
L 340.054382 -95.514594 
L 340.47371 -94.680942 
L 340.893038 -93.852866 
L 341.312367 -93.030374 
L 341.731695 -92.213473 
L 342.151024 -91.402168 
L 342.570352 -90.596466 
L 342.989681 -89.79637 
L 343.409009 -89.001885 
L 343.828337 -88.213013 
L 344.247666 -87.429758 
L 344.666994 -86.652121 
L 345.086323 -85.880102 
L 345.505651 -85.113704 
L 345.92498 -84.352924 
L 346.344308 -83.597763 
L 346.763636 -82.848218 
L 347.182965 -82.104288 
L 347.602293 -81.365969 
L 348.021622 -80.633258 
L 348.44095 -79.906151 
L 348.860278 -79.184643 
L 349.279607 -78.468728 
L 349.698935 -77.758401 
L 350.118264 -77.053655 
L 350.537592 -76.354482 
L 350.956921 -75.660876 
L 351.376249 -74.972826 
L 351.795577 -74.290326 
L 352.214906 -73.613364 
L 352.634234 -72.941932 
L 353.053563 -72.276017 
L 353.472891 -71.61561 
L 353.892219 -70.960699 
L 354.311548 -70.311271 
L 354.730876 -69.667314 
L 355.150205 -69.028814 
L 355.569533 -68.395758 
L 355.988862 -67.768131 
L 356.40819 -67.14592 
L 356.827518 -66.529108 
L 357.246847 -65.91768 
L 357.666175 -65.311621 
L 358.085504 -64.710913 
L 358.504832 -64.11554 
L 358.924161 -63.525484 
L 359.343489 -62.940728 
L 359.762817 -62.361252 
L 360.182146 -61.78704 
L 360.601474 -61.218071 
L 361.020803 -60.654326 
L 361.440131 -60.095785 
L 361.859459 -59.542429 
L 362.278788 -58.994236 
L 362.698116 -58.451186 
L 363.117445 -57.913258 
L 363.536773 -57.380429 
L 363.956102 -56.852678 
L 364.37543 -56.329983 
L 364.794758 -55.812321 
L 365.214087 -55.299669 
L 365.633415 -54.792004 
L 366.052744 -54.289302 
L 366.472072 -53.79154 
L 366.8914 -53.298694 
L 367.310729 -52.810738 
L 367.730057 -52.327649 
L 368.149386 -51.849402 
L 368.568714 -51.375971 
L 368.988043 -50.907331 
L 369.407371 -50.443457 
L 369.826699 -49.984322 
L 370.246028 -49.529901 
L 370.665356 -49.080167 
L 371.084685 -48.635093 
L 371.504013 -48.194654 
L 371.923342 -47.758821 
L 372.34267 -47.327569 
L 372.761998 -46.900869 
L 373.181327 -46.478694 
L 373.600655 -46.061017 
L 374.019984 -45.647809 
L 374.439312 -45.239043 
L 374.85864 -44.834691 
L 375.277969 -44.434725 
L 375.697297 -44.039115 
L 376.116626 -43.647834 
L 376.535954 -43.260853 
L 376.955283 -42.878143 
L 377.374611 -42.499675 
L 377.793939 -42.12542 
L 378.213268 -41.75535 
L 378.632596 -41.389435 
L 379.051925 -41.027645 
L 379.471253 -40.669953 
L 379.890581 -40.316327 
L 380.30991 -39.966739 
L 380.729238 -39.621159 
L 381.148567 -39.279557 
L 381.567895 -38.941904 
L 381.987224 -38.608171 
L 382.406552 -38.278327 
L 382.82588 -37.952342 
L 383.245209 -37.630187 
L 383.664537 -37.311832 
L 384.083866 -36.997248 
L 384.503194 -36.686404 
L 384.922523 -36.37927 
L 385.341851 -36.075816 
L 385.761179 -35.776013 
L 386.180508 -35.479831 
L 386.599836 -35.18724 
L 387.019165 -34.89821 
L 387.438493 -34.612711 
L 387.857821 -34.330713 
L 388.27715 -34.052187 
L 388.696478 -33.777102 
L 389.115807 -33.50543 
L 389.535135 -33.23714 
L 389.954464 -32.972203 
L 390.373792 -32.710588 
L 390.79312 -32.452268 
L 391.212449 -32.197211 
L 391.631777 -31.945389 
L 392.051106 -31.696773 
L 392.470434 -31.451332 
L 392.889762 -31.209038 
L 393.309091 -30.969861 
L 393.728419 -30.733773 
L 394.147748 -30.500745 
L 394.567076 -30.270747 
L 394.986405 -30.043751 
L 395.405733 -29.819727 
L 395.825061 -29.598649 
L 396.24439 -29.380485 
L 396.663718 -29.16521 
L 397.083047 -28.952793 
L 397.502375 -28.743207 
L 397.921704 -28.536424 
L 398.341032 -28.332415 
L 398.76036 -28.131153 
L 399.179689 -27.93261 
L 399.599017 -27.736758 
L 400.018346 -27.54357 
L 400.437674 -27.353018 
L 400.857002 -27.165075 
L 401.276331 -26.979714 
L 401.695659 -26.796908 
L 402.114988 -26.61663 
L 402.534316 -26.438852 
L 402.953645 -26.26355 
L 403.372973 -26.090695 
L 403.792301 -25.920262 
L 404.21163 -25.752224 
L 404.630958 -25.586556 
L 405.050287 -25.423231 
L 405.469615 -25.262224 
L 405.888943 -25.103509 
L 406.308272 -24.94706 
L 406.7276 -24.792853 
L 407.146929 -24.640862 
L 407.566257 -24.491062 
L 407.985586 -24.343429 
L 408.404914 -24.197937 
L 408.824242 -24.054562 
L 409.243571 -23.91328 
L 409.662899 -23.774066 
L 410.082228 -23.636897 
L 410.501556 -23.501749 
L 410.920885 -23.368597 
L 411.340213 -23.237419 
L 411.759541 -23.108191 
L 412.17887 -22.98089 
L 412.598198 -22.855492 
L 413.017527 -22.731976 
L 413.436855 -22.610317 
L 413.856183 -22.490495 
L 414.275512 -22.372485 
L 414.69484 -22.256267 
L 415.114169 -22.141818 
L 415.533497 -22.029117 
L 415.952826 -21.918141 
L 416.372154 -21.808869 
L 416.791482 -21.70128 
L 417.210811 -21.595353 
L 417.630139 -21.491066 
L 418.049468 -21.3884 
L 418.468796 -21.287333 
L 418.888124 -21.187845 
L 419.307453 -21.089916 
L 419.726781 -20.993525 
L 420.14611 -20.898653 
L 420.565438 -20.80528 
L 420.984767 -20.713386 
L 421.404095 -20.622953 
L 421.823423 -20.53396 
L 422.242752 -20.446389 
L 422.66208 -20.360222 
L 423.081409 -20.275438 
L 423.500737 -20.19202 
L 423.920066 -20.10995 
L 424.339394 -20.029209 
L 424.758722 -19.94978 
L 425.178051 -19.871644 
L 425.597379 -19.794783 
L 426.016708 -19.719182 
L 426.436036 -19.644821 
L 426.855364 -19.571685 
L 427.274693 -19.499756 
L 427.694021 -19.429017 
L 428.11335 -19.359452 
L 428.532678 -19.291044 
L 428.952007 -19.223777 
L 429.371335 -19.157636 
L 429.790663 -19.092603 
L 430.209992 -19.028664 
L 430.62932 -18.965802 
L 431.048649 -18.904003 
L 431.467977 -18.843251 
L 431.887305 -18.783531 
L 432.306634 -18.724828 
L 432.725962 -18.667127 
L 433.145291 -18.610414 
L 433.564619 -18.554674 
L 433.983948 -18.499894 
L 434.403276 -18.446058 
L 434.822604 -18.393153 
L 435.241933 -18.341165 
L 435.661261 -18.290081 
L 436.08059 -18.239887 
L 436.499918 -18.190569 
L 436.919247 -18.142115 
L 437.338575 -18.094512 
L 437.757903 -18.047746 
L 438.177232 -18.001805 
L 438.59656 -17.956676 
L 439.015889 -17.912348 
L 439.435217 -17.868807 
L 439.854545 -17.826042 
L 439.854545 -15.709091 
L 439.854545 -15.709091 
L 439.435217 -15.709091 
L 439.015889 -15.709091 
L 438.59656 -15.709091 
L 438.177232 -15.709091 
L 437.757903 -15.709091 
L 437.338575 -15.709091 
L 436.919247 -15.709091 
L 436.499918 -15.709091 
L 436.08059 -15.709091 
L 435.661261 -15.709091 
L 435.241933 -15.709091 
L 434.822604 -15.709091 
L 434.403276 -15.709091 
L 433.983948 -15.709091 
L 433.564619 -15.709091 
L 433.145291 -15.709091 
L 432.725962 -15.709091 
L 432.306634 -15.709091 
L 431.887305 -15.709091 
L 431.467977 -15.709091 
L 431.048649 -15.709091 
L 430.62932 -15.709091 
L 430.209992 -15.709091 
L 429.790663 -15.709091 
L 429.371335 -15.709091 
L 428.952007 -15.709091 
L 428.532678 -15.709091 
L 428.11335 -15.709091 
L 427.694021 -15.709091 
L 427.274693 -15.709091 
L 426.855364 -15.709091 
L 426.436036 -15.709091 
L 426.016708 -15.709091 
L 425.597379 -15.709091 
L 425.178051 -15.709091 
L 424.758722 -15.709091 
L 424.339394 -15.709091 
L 423.920066 -15.709091 
L 423.500737 -15.709091 
L 423.081409 -15.709091 
L 422.66208 -15.709091 
L 422.242752 -15.709091 
L 421.823423 -15.709091 
L 421.404095 -15.709091 
L 420.984767 -15.709091 
L 420.565438 -15.709091 
L 420.14611 -15.709091 
L 419.726781 -15.709091 
L 419.307453 -15.709091 
L 418.888124 -15.709091 
L 418.468796 -15.709091 
L 418.049468 -15.709091 
L 417.630139 -15.709091 
L 417.210811 -15.709091 
L 416.791482 -15.709091 
L 416.372154 -15.709091 
L 415.952826 -15.709091 
L 415.533497 -15.709091 
L 415.114169 -15.709091 
L 414.69484 -15.709091 
L 414.275512 -15.709091 
L 413.856183 -15.709091 
L 413.436855 -15.709091 
L 413.017527 -15.709091 
L 412.598198 -15.709091 
L 412.17887 -15.709091 
L 411.759541 -15.709091 
L 411.340213 -15.709091 
L 410.920885 -15.709091 
L 410.501556 -15.709091 
L 410.082228 -15.709091 
L 409.662899 -15.709091 
L 409.243571 -15.709091 
L 408.824242 -15.709091 
L 408.404914 -15.709091 
L 407.985586 -15.709091 
L 407.566257 -15.709091 
L 407.146929 -15.709091 
L 406.7276 -15.709091 
L 406.308272 -15.709091 
L 405.888943 -15.709091 
L 405.469615 -15.709091 
L 405.050287 -15.709091 
L 404.630958 -15.709091 
L 404.21163 -15.709091 
L 403.792301 -15.709091 
L 403.372973 -15.709091 
L 402.953645 -15.709091 
L 402.534316 -15.709091 
L 402.114988 -15.709091 
L 401.695659 -15.709091 
L 401.276331 -15.709091 
L 400.857002 -15.709091 
L 400.437674 -15.709091 
L 400.018346 -15.709091 
L 399.599017 -15.709091 
L 399.179689 -15.709091 
L 398.76036 -15.709091 
L 398.341032 -15.709091 
L 397.921704 -15.709091 
L 397.502375 -15.709091 
L 397.083047 -15.709091 
L 396.663718 -15.709091 
L 396.24439 -15.709091 
L 395.825061 -15.709091 
L 395.405733 -15.709091 
L 394.986405 -15.709091 
L 394.567076 -15.709091 
L 394.147748 -15.709091 
L 393.728419 -15.709091 
L 393.309091 -15.709091 
L 392.889762 -15.709091 
L 392.470434 -15.709091 
L 392.051106 -15.709091 
L 391.631777 -15.709091 
L 391.212449 -15.709091 
L 390.79312 -15.709091 
L 390.373792 -15.709091 
L 389.954464 -15.709091 
L 389.535135 -15.709091 
L 389.115807 -15.709091 
L 388.696478 -15.709091 
L 388.27715 -15.709091 
L 387.857821 -15.709091 
L 387.438493 -15.709091 
L 387.019165 -15.709091 
L 386.599836 -15.709091 
L 386.180508 -15.709091 
L 385.761179 -15.709091 
L 385.341851 -15.709091 
L 384.922523 -15.709091 
L 384.503194 -15.709091 
L 384.083866 -15.709091 
L 383.664537 -15.709091 
L 383.245209 -15.709091 
L 382.82588 -15.709091 
L 382.406552 -15.709091 
L 381.987224 -15.709091 
L 381.567895 -15.709091 
L 381.148567 -15.709091 
L 380.729238 -15.709091 
L 380.30991 -15.709091 
L 379.890581 -15.709091 
L 379.471253 -15.709091 
L 379.051925 -15.709091 
L 378.632596 -15.709091 
L 378.213268 -15.709091 
L 377.793939 -15.709091 
L 377.374611 -15.709091 
L 376.955283 -15.709091 
L 376.535954 -15.709091 
L 376.116626 -15.709091 
L 375.697297 -15.709091 
L 375.277969 -15.709091 
L 374.85864 -15.709091 
L 374.439312 -15.709091 
L 374.019984 -15.709091 
L 373.600655 -15.709091 
L 373.181327 -15.709091 
L 372.761998 -15.709091 
L 372.34267 -15.709091 
L 371.923342 -15.709091 
L 371.504013 -15.709091 
L 371.084685 -15.709091 
L 370.665356 -15.709091 
L 370.246028 -15.709091 
L 369.826699 -15.709091 
L 369.407371 -15.709091 
L 368.988043 -15.709091 
L 368.568714 -15.709091 
L 368.149386 -15.709091 
L 367.730057 -15.709091 
L 367.310729 -15.709091 
L 366.8914 -15.709091 
L 366.472072 -15.709091 
L 366.052744 -15.709091 
L 365.633415 -15.709091 
L 365.214087 -15.709091 
L 364.794758 -15.709091 
L 364.37543 -15.709091 
L 363.956102 -15.709091 
L 363.536773 -15.709091 
L 363.117445 -15.709091 
L 362.698116 -15.709091 
L 362.278788 -15.709091 
L 361.859459 -15.709091 
L 361.440131 -15.709091 
L 361.020803 -15.709091 
L 360.601474 -15.709091 
L 360.182146 -15.709091 
L 359.762817 -15.709091 
L 359.343489 -15.709091 
L 358.924161 -15.709091 
L 358.504832 -15.709091 
L 358.085504 -15.709091 
L 357.666175 -15.709091 
L 357.246847 -15.709091 
L 356.827518 -15.709091 
L 356.40819 -15.709091 
L 355.988862 -15.709091 
L 355.569533 -15.709091 
L 355.150205 -15.709091 
L 354.730876 -15.709091 
L 354.311548 -15.709091 
L 353.892219 -15.709091 
L 353.472891 -15.709091 
L 353.053563 -15.709091 
L 352.634234 -15.709091 
L 352.214906 -15.709091 
L 351.795577 -15.709091 
L 351.376249 -15.709091 
L 350.956921 -15.709091 
L 350.537592 -15.709091 
L 350.118264 -15.709091 
L 349.698935 -15.709091 
L 349.279607 -15.709091 
L 348.860278 -15.709091 
L 348.44095 -15.709091 
L 348.021622 -15.709091 
L 347.602293 -15.709091 
L 347.182965 -15.709091 
L 346.763636 -15.709091 
L 346.344308 -15.709091 
L 345.92498 -15.709091 
L 345.505651 -15.709091 
L 345.086323 -15.709091 
L 344.666994 -15.709091 
L 344.247666 -15.709091 
L 343.828337 -15.709091 
L 343.409009 -15.709091 
L 342.989681 -15.709091 
L 342.570352 -15.709091 
L 342.151024 -15.709091 
L 341.731695 -15.709091 
L 341.312367 -15.709091 
L 340.893038 -15.709091 
L 340.47371 -15.709091 
L 340.054382 -15.709091 
L 339.635053 -15.709091 
L 339.215725 -15.709091 
L 338.796396 -15.709091 
L 338.377068 -15.709091 
L 337.95774 -15.709091 
L 337.538411 -15.709091 
L 337.119083 -15.709091 
L 336.699754 -15.709091 
L 336.280426 -15.709091 
L 335.861097 -15.709091 
L 335.441769 -15.709091 
L 335.022441 -15.709091 
L 334.603112 -15.709091 
L 334.183784 -15.709091 
L 333.764455 -15.709091 
L 333.345127 -15.709091 
L 332.925799 -15.709091 
L 332.50647 -15.709091 
L 332.087142 -15.709091 
L 331.667813 -15.709091 
L 331.248485 -15.709091 
L 330.829156 -15.709091 
L 330.409828 -15.709091 
L 329.9905 -15.709091 
L 329.571171 -15.709091 
L 329.151843 -15.709091 
L 328.732514 -15.709091 
L 328.313186 -15.709091 
L 327.893857 -15.709091 
L 327.474529 -15.709091 
L 327.055201 -15.709091 
L 326.635872 -15.709091 
L 326.216544 -15.709091 
L 325.797215 -15.709091 
L 325.377887 -15.709091 
L 324.958559 -15.709091 
L 324.53923 -15.709091 
L 324.119902 -15.709091 
L 323.700573 -15.709091 
L 323.281245 -15.709091 
L 322.861916 -15.709091 
L 322.442588 -15.709091 
L 322.02326 -15.709091 
L 321.603931 -15.709091 
L 321.184603 -15.709091 
L 320.765274 -15.709091 
L 320.345946 -15.709091 
L 319.926618 -15.709091 
L 319.507289 -15.709091 
L 319.087961 -15.709091 
L 318.668632 -15.709091 
L 318.249304 -15.709091 
L 317.829975 -15.709091 
L 317.410647 -15.709091 
L 316.991319 -15.709091 
L 316.57199 -15.709091 
L 316.152662 -15.709091 
L 315.733333 -15.709091 
L 315.314005 -15.709091 
L 314.894676 -15.709091 
L 314.475348 -15.709091 
L 314.05602 -15.709091 
L 313.636691 -15.709091 
L 313.217363 -15.709091 
L 312.798034 -15.709091 
L 312.378706 -15.709091 
L 311.959378 -15.709091 
L 311.540049 -15.709091 
L 311.120721 -15.709091 
L 310.701392 -15.709091 
L 310.282064 -15.709091 
L 309.862735 -15.709091 
L 309.443407 -15.709091 
L 309.024079 -15.709091 
L 308.60475 -15.709091 
L 308.185422 -15.709091 
L 307.766093 -15.709091 
L 307.346765 -15.709091 
L 306.927437 -15.709091 
L 306.508108 -15.709091 
L 306.08878 -15.709091 
L 305.669451 -15.709091 
L 305.250123 -15.709091 
L 304.830794 -15.709091 
L 304.411466 -15.709091 
L 303.992138 -15.709091 
L 303.572809 -15.709091 
L 303.153481 -15.709091 
L 302.734152 -15.709091 
L 302.314824 -15.709091 
L 301.895495 -15.709091 
L 301.476167 -15.709091 
L 301.056839 -15.709091 
L 300.63751 -15.709091 
L 300.218182 -15.709091 
L 299.798853 -15.709091 
L 299.379525 -15.709091 
L 298.960197 -15.709091 
L 298.540868 -15.709091 
L 298.12154 -15.709091 
L 297.702211 -15.709091 
L 297.282883 -15.709091 
L 296.863554 -15.709091 
L 296.444226 -15.709091 
L 296.024898 -15.709091 
L 295.605569 -15.709091 
L 295.186241 -15.709091 
L 294.766912 -15.709091 
L 294.347584 -15.709091 
L 293.928256 -15.709091 
L 293.508927 -15.709091 
L 293.089599 -15.709091 
L 292.67027 -15.709091 
L 292.250942 -15.709091 
L 291.831613 -15.709091 
L 291.412285 -15.709091 
L 290.992957 -15.709091 
L 290.573628 -15.709091 
L 290.1543 -15.709091 
L 289.734971 -15.709091 
L 289.315643 -15.709091 
L 288.896314 -15.709091 
L 288.476986 -15.709091 
L 288.057658 -15.709091 
L 287.638329 -15.709091 
L 287.219001 -15.709091 
L 286.799672 -15.709091 
L 286.380344 -15.709091 
L 285.961016 -15.709091 
L 285.541687 -15.709091 
L 285.122359 -15.709091 
L 284.70303 -15.709091 
L 284.283702 -15.709091 
L 283.864373 -15.709091 
L 283.445045 -15.709091 
L 283.025717 -15.709091 
L 282.606388 -15.709091 
L 282.18706 -15.709091 
L 281.767731 -15.709091 
L 281.348403 -15.709091 
L 280.929075 -15.709091 
L 280.509746 -15.709091 
L 280.090418 -15.709091 
L 279.671089 -15.709091 
L 279.251761 -15.709091 
L 278.832432 -15.709091 
L 278.413104 -15.709091 
L 277.993776 -15.709091 
L 277.574447 -15.709091 
L 277.155119 -15.709091 
L 276.73579 -15.709091 
L 276.316462 -15.709091 
L 275.897133 -15.709091 
L 275.477805 -15.709091 
L 275.058477 -15.709091 
L 274.639148 -15.709091 
L 274.21982 -15.709091 
L 273.800491 -15.709091 
L 273.381163 -15.709091 
L 272.961835 -15.709091 
L 272.542506 -15.709091 
L 272.123178 -15.709091 
L 271.703849 -15.709091 
L 271.284521 -15.709091 
L 270.865192 -15.709091 
L 270.445864 -15.709091 
L 270.026536 -15.709091 
L 269.607207 -15.709091 
L 269.187879 -15.709091 
L 268.76855 -15.709091 
L 268.349222 -15.709091 
L 267.929894 -15.709091 
L 267.510565 -15.709091 
L 267.091237 -15.709091 
L 266.671908 -15.709091 
L 266.25258 -15.709091 
L 265.833251 -15.709091 
L 265.413923 -15.709091 
L 264.994595 -15.709091 
L 264.575266 -15.709091 
L 264.155938 -15.709091 
L 263.736609 -15.709091 
L 263.317281 -15.709091 
L 262.897952 -15.709091 
L 262.478624 -15.709091 
L 262.059296 -15.709091 
L 261.639967 -15.709091 
L 261.220639 -15.709091 
L 260.80131 -15.709091 
L 260.381982 -15.709091 
L 259.962654 -15.709091 
L 259.543325 -15.709091 
L 259.123997 -15.709091 
L 258.704668 -15.709091 
L 258.28534 -15.709091 
L 257.866011 -15.709091 
L 257.446683 -15.709091 
L 257.027355 -15.709091 
L 256.608026 -15.709091 
L 256.188698 -15.709091 
L 255.769369 -15.709091 
L 255.350041 -15.709091 
L 254.930713 -15.709091 
L 254.511384 -15.709091 
L 254.092056 -15.709091 
L 253.672727 -15.709091 
L 253.253399 -15.709091 
L 252.83407 -15.709091 
L 252.414742 -15.709091 
L 251.995414 -15.709091 
L 251.576085 -15.709091 
L 251.156757 -15.709091 
L 250.737428 -15.709091 
L 250.3181 -15.709091 
L 249.898771 -15.709091 
L 249.479443 -15.709091 
L 249.060115 -15.709091 
L 248.640786 -15.709091 
L 248.221458 -15.709091 
L 247.802129 -15.709091 
L 247.382801 -15.709091 
L 246.963473 -15.709091 
L 246.544144 -15.709091 
L 246.124816 -15.709091 
L 245.705487 -15.709091 
L 245.286159 -15.709091 
L 244.86683 -15.709091 
L 244.447502 -15.709091 
L 244.028174 -15.709091 
L 243.608845 -15.709091 
L 243.189517 -15.709091 
L 242.770188 -15.709091 
L 242.35086 -15.709091 
L 241.931532 -15.709091 
L 241.512203 -15.709091 
L 241.092875 -15.709091 
L 240.673546 -15.709091 
L 240.254218 -15.709091 
L 239.834889 -15.709091 
L 239.415561 -15.709091 
L 238.996233 -15.709091 
L 238.576904 -15.709091 
L 238.157576 -15.709091 
L 237.738247 -15.709091 
L 237.318919 -15.709091 
L 236.89959 -15.709091 
L 236.480262 -15.709091 
L 236.060934 -15.709091 
L 235.641605 -15.709091 
L 235.222277 -15.709091 
L 234.802948 -15.709091 
L 234.38362 -15.709091 
L 233.964292 -15.709091 
L 233.544963 -15.709091 
L 233.125635 -15.709091 
L 232.706306 -15.709091 
L 232.286978 -15.709091 
L 231.867649 -15.709091 
L 231.448321 -15.709091 
L 231.028993 -15.709091 
L 230.609664 -15.709091 
L 230.190336 -15.709091 
L 229.771007 -15.709091 
L 229.351679 -15.709091 
L 228.932351 -15.709091 
L 228.513022 -15.709091 
L 228.093694 -15.709091 
L 227.674365 -15.709091 
L 227.255037 -15.709091 
L 226.835708 -15.709091 
L 226.41638 -15.709091 
L 225.997052 -15.709091 
L 225.577723 -15.709091 
L 225.158395 -15.709091 
L 224.739066 -15.709091 
L 224.319738 -15.709091 
L 223.90041 -15.709091 
L 223.481081 -15.709091 
L 223.061753 -15.709091 
L 222.642424 -15.709091 
L 222.223096 -15.709091 
L 221.803767 -15.709091 
L 221.384439 -15.709091 
L 220.965111 -15.709091 
L 220.545782 -15.709091 
L 220.126454 -15.709091 
L 219.707125 -15.709091 
L 219.287797 -15.709091 
L 218.868468 -15.709091 
L 218.44914 -15.709091 
L 218.029812 -15.709091 
L 217.610483 -15.709091 
L 217.191155 -15.709091 
L 216.771826 -15.709091 
L 216.352498 -15.709091 
L 215.93317 -15.709091 
L 215.513841 -15.709091 
L 215.094513 -15.709091 
L 214.675184 -15.709091 
L 214.255856 -15.709091 
L 213.836527 -15.709091 
L 213.417199 -15.709091 
L 212.997871 -15.709091 
L 212.578542 -15.709091 
L 212.159214 -15.709091 
L 211.739885 -15.709091 
L 211.320557 -15.709091 
L 210.901229 -15.709091 
L 210.4819 -15.709091 
L 210.062572 -15.709091 
L 209.643243 -15.709091 
L 209.223915 -15.709091 
L 208.804586 -15.709091 
L 208.385258 -15.709091 
L 207.96593 -15.709091 
L 207.546601 -15.709091 
L 207.127273 -15.709091 
L 206.707944 -15.709091 
L 206.288616 -15.709091 
L 205.869287 -15.709091 
L 205.449959 -15.709091 
L 205.030631 -15.709091 
L 204.611302 -15.709091 
L 204.191974 -15.709091 
L 203.772645 -15.709091 
L 203.353317 -15.709091 
L 202.933989 -15.709091 
L 202.51466 -15.709091 
L 202.095332 -15.709091 
L 201.676003 -15.709091 
L 201.256675 -15.709091 
L 200.837346 -15.709091 
L 200.418018 -15.709091 
L 199.99869 -15.709091 
L 199.579361 -15.709091 
L 199.160033 -15.709091 
L 198.740704 -15.709091 
L 198.321376 -15.709091 
L 197.902048 -15.709091 
L 197.482719 -15.709091 
L 197.063391 -15.709091 
L 196.644062 -15.709091 
L 196.224734 -15.709091 
L 195.805405 -15.709091 
L 195.386077 -15.709091 
L 194.966749 -15.709091 
L 194.54742 -15.709091 
L 194.128092 -15.709091 
L 193.708763 -15.709091 
L 193.289435 -15.709091 
L 192.870106 -15.709091 
L 192.450778 -15.709091 
L 192.03145 -15.709091 
L 191.612121 -15.709091 
L 191.192793 -15.709091 
L 190.773464 -15.709091 
L 190.354136 -15.709091 
L 189.934808 -15.709091 
L 189.515479 -15.709091 
L 189.096151 -15.709091 
L 188.676822 -15.709091 
L 188.257494 -15.709091 
L 187.838165 -15.709091 
L 187.418837 -15.709091 
L 186.999509 -15.709091 
L 186.58018 -15.709091 
L 186.160852 -15.709091 
L 185.741523 -15.709091 
L 185.322195 -15.709091 
L 184.902867 -15.709091 
L 184.483538 -15.709091 
L 184.06421 -15.709091 
L 183.644881 -15.709091 
L 183.225553 -15.709091 
L 182.806224 -15.709091 
L 182.386896 -15.709091 
L 181.967568 -15.709091 
L 181.548239 -15.709091 
L 181.128911 -15.709091 
L 180.709582 -15.709091 
L 180.290254 -15.709091 
L 179.870925 -15.709091 
L 179.451597 -15.709091 
L 179.032269 -15.709091 
L 178.61294 -15.709091 
L 178.193612 -15.709091 
L 177.774283 -15.709091 
L 177.354955 -15.709091 
L 176.935627 -15.709091 
L 176.516298 -15.709091 
L 176.09697 -15.709091 
L 175.677641 -15.709091 
L 175.258313 -15.709091 
L 174.838984 -15.709091 
L 174.419656 -15.709091 
L 174.000328 -15.709091 
L 173.580999 -15.709091 
L 173.161671 -15.709091 
L 172.742342 -15.709091 
L 172.323014 -15.709091 
L 171.903686 -15.709091 
L 171.484357 -15.709091 
L 171.065029 -15.709091 
L 170.6457 -15.709091 
L 170.226372 -15.709091 
L 169.807043 -15.709091 
L 169.387715 -15.709091 
L 168.968387 -15.709091 
L 168.549058 -15.709091 
L 168.12973 -15.709091 
L 167.710401 -15.709091 
L 167.291073 -15.709091 
L 166.871744 -15.709091 
L 166.452416 -15.709091 
L 166.033088 -15.709091 
L 165.613759 -15.709091 
L 165.194431 -15.709091 
L 164.775102 -15.709091 
L 164.355774 -15.709091 
L 163.936446 -15.709091 
L 163.517117 -15.709091 
L 163.097789 -15.709091 
L 162.67846 -15.709091 
L 162.259132 -15.709091 
L 161.839803 -15.709091 
L 161.420475 -15.709091 
L 161.001147 -15.709091 
L 160.581818 -15.709091 
L 160.16249 -15.709091 
L 159.743161 -15.709091 
L 159.323833 -15.709091 
L 158.904505 -15.709091 
L 158.485176 -15.709091 
L 158.065848 -15.709091 
L 157.646519 -15.709091 
L 157.227191 -15.709091 
L 156.807862 -15.709091 
L 156.388534 -15.709091 
L 155.969206 -15.709091 
L 155.549877 -15.709091 
L 155.130549 -15.709091 
L 154.71122 -15.709091 
L 154.291892 -15.709091 
L 153.872563 -15.709091 
L 153.453235 -15.709091 
L 153.033907 -15.709091 
L 152.614578 -15.709091 
L 152.19525 -15.709091 
L 151.775921 -15.709091 
L 151.356593 -15.709091 
L 150.937265 -15.709091 
L 150.517936 -15.709091 
L 150.098608 -15.709091 
L 149.679279 -15.709091 
L 149.259951 -15.709091 
L 148.840622 -15.709091 
L 148.421294 -15.709091 
L 148.001966 -15.709091 
L 147.582637 -15.709091 
L 147.163309 -15.709091 
L 146.74398 -15.709091 
L 146.324652 -15.709091 
L 145.905324 -15.709091 
L 145.485995 -15.709091 
L 145.066667 -15.709091 
L 144.647338 -15.709091 
L 144.22801 -15.709091 
L 143.808681 -15.709091 
L 143.389353 -15.709091 
L 142.970025 -15.709091 
L 142.550696 -15.709091 
L 142.131368 -15.709091 
L 141.712039 -15.709091 
L 141.292711 -15.709091 
L 140.873382 -15.709091 
L 140.454054 -15.709091 
L 140.034726 -15.709091 
L 139.615397 -15.709091 
L 139.196069 -15.709091 
L 138.77674 -15.709091 
L 138.357412 -15.709091 
L 137.938084 -15.709091 
L 137.518755 -15.709091 
L 137.099427 -15.709091 
L 136.680098 -15.709091 
L 136.26077 -15.709091 
L 135.841441 -15.709091 
L 135.422113 -15.709091 
L 135.002785 -15.709091 
L 134.583456 -15.709091 
L 134.164128 -15.709091 
L 133.744799 -15.709091 
L 133.325471 -15.709091 
L 132.906143 -15.709091 
L 132.486814 -15.709091 
L 132.067486 -15.709091 
L 131.648157 -15.709091 
L 131.228829 -15.709091 
L 130.8095 -15.709091 
L 130.390172 -15.709091 
L 129.970844 -15.709091 
L 129.551515 -15.709091 
L 129.132187 -15.709091 
L 128.712858 -15.709091 
L 128.29353 -15.709091 
L 127.874201 -15.709091 
L 127.454873 -15.709091 
L 127.035545 -15.709091 
L 126.616216 -15.709091 
L 126.196888 -15.709091 
L 125.777559 -15.709091 
L 125.358231 -15.709091 
L 124.938903 -15.709091 
L 124.519574 -15.709091 
L 124.100246 -15.709091 
L 123.680917 -15.709091 
L 123.261589 -15.709091 
L 122.84226 -15.709091 
L 122.422932 -15.709091 
L 122.003604 -15.709091 
L 121.584275 -15.709091 
L 121.164947 -15.709091 
L 120.745618 -15.709091 
L 120.32629 -15.709091 
L 119.906962 -15.709091 
L 119.487633 -15.709091 
L 119.068305 -15.709091 
L 118.648976 -15.709091 
L 118.229648 -15.709091 
L 117.810319 -15.709091 
L 117.390991 -15.709091 
L 116.971663 -15.709091 
L 116.552334 -15.709091 
L 116.133006 -15.709091 
L 115.713677 -15.709091 
L 115.294349 -15.709091 
L 114.87502 -15.709091 
L 114.455692 -15.709091 
L 114.036364 -15.709091 
L 113.617035 -15.709091 
L 113.197707 -15.709091 
L 112.778378 -15.709091 
L 112.35905 -15.709091 
L 111.939722 -15.709091 
L 111.520393 -15.709091 
L 111.101065 -15.709091 
L 110.681736 -15.709091 
L 110.262408 -15.709091 
L 109.843079 -15.709091 
L 109.423751 -15.709091 
L 109.004423 -15.709091 
L 108.585094 -15.709091 
L 108.165766 -15.709091 
L 107.746437 -15.709091 
L 107.327109 -15.709091 
L 106.907781 -15.709091 
L 106.488452 -15.709091 
L 106.069124 -15.709091 
L 105.649795 -15.709091 
L 105.230467 -15.709091 
L 104.811138 -15.709091 
L 104.39181 -15.709091 
L 103.972482 -15.709091 
L 103.553153 -15.709091 
L 103.133825 -15.709091 
L 102.714496 -15.709091 
L 102.295168 -15.709091 
L 101.875839 -15.709091 
L 101.456511 -15.709091 
L 101.037183 -15.709091 
L 100.617854 -15.709091 
L 100.198526 -15.709091 
L 99.779197 -15.709091 
L 99.359869 -15.709091 
L 98.940541 -15.709091 
L 98.521212 -15.709091 
L 98.101884 -15.709091 
L 97.682555 -15.709091 
L 97.263227 -15.709091 
L 96.843898 -15.709091 
L 96.42457 -15.709091 
L 96.005242 -15.709091 
L 95.585913 -15.709091 
L 95.166585 -15.709091 
L 94.747256 -15.709091 
L 94.327928 -15.709091 
L 93.9086 -15.709091 
L 93.489271 -15.709091 
L 93.069943 -15.709091 
L 92.650614 -15.709091 
L 92.231286 -15.709091 
L 91.811957 -15.709091 
L 91.392629 -15.709091 
L 90.973301 -15.709091 
L 90.553972 -15.709091 
L 90.134644 -15.709091 
L 89.715315 -15.709091 
L 89.295987 -15.709091 
L 88.876658 -15.709091 
L 88.45733 -15.709091 
L 88.038002 -15.709091 
L 87.618673 -15.709091 
L 87.199345 -15.709091 
L 86.780016 -15.709091 
L 86.360688 -15.709091 
L 85.94136 -15.709091 
L 85.522031 -15.709091 
L 85.102703 -15.709091 
L 84.683374 -15.709091 
L 84.264046 -15.709091 
L 83.844717 -15.709091 
L 83.425389 -15.709091 
L 83.006061 -15.709091 
L 82.586732 -15.709091 
L 82.167404 -15.709091 
L 81.748075 -15.709091 
L 81.328747 -15.709091 
L 80.909419 -15.709091 
L 80.49009 -15.709091 
L 80.070762 -15.709091 
L 79.651433 -15.709091 
L 79.232105 -15.709091 
L 78.812776 -15.709091 
L 78.393448 -15.709091 
L 77.97412 -15.709091 
L 77.554791 -15.709091 
L 77.135463 -15.709091 
L 76.716134 -15.709091 
L 76.296806 -15.709091 
L 75.877477 -15.709091 
L 75.458149 -15.709091 
L 75.038821 -15.709091 
L 74.619492 -15.709091 
L 74.200164 -15.709091 
L 73.780835 -15.709091 
L 73.361507 -15.709091 
L 72.942179 -15.709091 
L 72.52285 -15.709091 
L 72.103522 -15.709091 
L 71.684193 -15.709091 
L 71.264865 -15.709091 
L 70.845536 -15.709091 
L 70.426208 -15.709091 
L 70.00688 -15.709091 
L 69.587551 -15.709091 
L 69.168223 -15.709091 
L 68.748894 -15.709091 
L 68.329566 -15.709091 
L 67.910238 -15.709091 
L 67.490909 -15.709091 
L 67.071581 -15.709091 
L 66.652252 -15.709091 
L 66.232924 -15.709091 
L 65.813595 -15.709091 
L 65.394267 -15.709091 
L 64.974939 -15.709091 
L 64.55561 -15.709091 
L 64.136282 -15.709091 
L 63.716953 -15.709091 
L 63.297625 -15.709091 
L 62.878296 -15.709091 
L 62.458968 -15.709091 
L 62.03964 -15.709091 
L 61.620311 -15.709091 
L 61.200983 -15.709091 
L 60.781654 -15.709091 
L 60.362326 -15.709091 
L 59.942998 -15.709091 
L 59.523669 -15.709091 
L 59.104341 -15.709091 
L 58.685012 -15.709091 
L 58.265684 -15.709091 
L 57.846355 -15.709091 
L 57.427027 -15.709091 
L 57.007699 -15.709091 
L 56.58837 -15.709091 
L 56.169042 -15.709091 
L 55.749713 -15.709091 
L 55.330385 -15.709091 
L 54.911057 -15.709091 
L 54.491728 -15.709091 
L 54.0724 -15.709091 
L 53.653071 -15.709091 
L 53.233743 -15.709091 
L 52.814414 -15.709091 
L 52.395086 -15.709091 
L 51.975758 -15.709091 
L 51.556429 -15.709091 
L 51.137101 -15.709091 
L 50.717772 -15.709091 
L 50.298444 -15.709091 
L 49.879115 -15.709091 
L 49.459787 -15.709091 
L 49.040459 -15.709091 
L 48.62113 -15.709091 
L 48.201802 -15.709091 
L 47.782473 -15.709091 
L 47.363145 -15.709091 
L 46.943817 -15.709091 
L 46.524488 -15.709091 
L 46.10516 -15.709091 
L 45.685831 -15.709091 
L 45.266503 -15.709091 
L 44.847174 -15.709091 
L 44.427846 -15.709091 
L 44.008518 -15.709091 
L 43.589189 -15.709091 
L 43.169861 -15.709091 
L 42.750532 -15.709091 
L 42.331204 -15.709091 
L 41.911876 -15.709091 
L 41.492547 -15.709091 
L 41.073219 -15.709091 
L 40.65389 -15.709091 
L 40.234562 -15.709091 
L 39.815233 -15.709091 
L 39.395905 -15.709091 
L 38.976577 -15.709091 
L 38.557248 -15.709091 
L 38.13792 -15.709091 
L 37.718591 -15.709091 
L 37.299263 -15.709091 
L 36.879934 -15.709091 
L 36.460606 -15.709091 
L 36.041278 -15.709091 
L 35.621949 -15.709091 
L 35.202621 -15.709091 
L 34.783292 -15.709091 
L 34.363964 -15.709091 
L 33.944636 -15.709091 
L 33.525307 -15.709091 
L 33.105979 -15.709091 
L 32.68665 -15.709091 
L 32.267322 -15.709091 
L 31.847993 -15.709091 
L 31.428665 -15.709091 
L 31.009337 -15.709091 
L 30.590008 -15.709091 
L 30.17068 -15.709091 
L 29.751351 -15.709091 
L 29.332023 -15.709091 
L 28.912695 -15.709091 
L 28.493366 -15.709091 
L 28.074038 -15.709091 
L 27.654709 -15.709091 
L 27.235381 -15.709091 
L 26.816052 -15.709091 
L 26.396724 -15.709091 
L 25.977396 -15.709091 
L 25.558067 -15.709091 
L 25.138739 -15.709091 
L 24.71941 -15.709091 
L 24.300082 -15.709091 
L 23.880753 -15.709091 
L 23.461425 -15.709091 
L 23.042097 -15.709091 
L 22.622768 -15.709091 
L 22.20344 -15.709091 
L 21.784111 -15.709091 
L 21.364783 -15.709091 
L 20.945455 -15.709091 
z
" style="stroke: #64d8cb"/>
    </defs>
    <g clip-path="url(#p70da0f3c09)">
     <use xlink:href="#m6e174da7bd" x="0" y="345.6" style="fill: #64d8cb; stroke: #64d8cb"/>
    </g>
   </g>
   <g id="line2d_1">
    <path d="M 20.945455 327.773958 
L 27.654709 326.989586 
L 33.944636 326.028315 
L 39.395905 324.977047 
L 44.427846 323.791131 
L 49.040459 322.491809 
L 53.653071 320.959138 
L 57.846355 319.33645 
L 62.03964 317.468847 
L 65.813595 315.556249 
L 69.587551 313.402789 
L 73.361507 310.987289 
L 77.135463 308.288168 
L 80.909419 305.283673 
L 84.264046 302.339147 
L 87.618673 299.121306 
L 90.973301 295.615678 
L 94.327928 291.80846 
L 97.682555 287.686742 
L 101.037183 283.238748 
L 104.39181 278.45408 
L 108.165766 272.658068 
L 111.939722 266.415357 
L 115.713677 259.719898 
L 119.487633 252.569626 
L 123.261589 244.966909 
L 127.454873 235.997759 
L 131.648157 226.496579 
L 136.26077 215.462105 
L 140.873382 203.862691 
L 146.324652 189.509728 
L 152.19525 173.4093 
L 159.743161 152.03131 
L 176.935627 103.060954 
L 182.386896 88.299799 
L 186.999509 76.406395 
L 191.192793 66.198936 
L 194.966749 57.595966 
L 198.321376 50.476106 
L 201.676003 43.904613 
L 204.611302 38.641391 
L 207.546601 33.863254 
L 210.062572 30.174227 
L 212.578542 26.876758 
L 215.094513 23.984716 
L 217.191155 21.89327 
L 219.287797 20.098094 
L 221.384439 18.604521 
L 223.481081 17.417004 
L 225.158395 16.689768 
L 226.835708 16.162092 
L 228.513022 15.83499 
L 230.190336 15.709091 
L 231.867649 15.784636 
L 233.544963 16.061482 
L 235.222277 16.539094 
L 236.89959 17.216556 
L 238.576904 18.092569 
L 240.673546 19.464203 
L 242.770188 21.139329 
L 244.86683 23.112962 
L 246.963473 25.379254 
L 249.479443 28.475644 
L 251.995414 31.970723 
L 254.511384 35.849849 
L 257.446683 40.839312 
L 260.381982 46.301608 
L 263.317281 52.206567 
L 266.671908 59.455813 
L 270.445864 68.188894 
L 274.639148 78.520901 
L 279.251761 90.526249 
L 284.70303 105.385444 
L 291.831613 125.533169 
L 310.701392 179.225315 
L 316.57199 195.106016 
L 322.02326 209.201629 
L 326.635872 220.550953 
L 331.248485 231.312252 
L 335.441769 240.550125 
L 339.635053 249.246185 
L 343.409009 256.598115 
L 347.182965 263.495712 
L 350.956921 269.939124 
L 354.730876 275.932686 
L 358.504832 281.48446 
L 362.278788 286.605764 
L 365.633415 290.807996 
L 368.988043 294.692669 
L 372.34267 298.272431 
L 375.697297 301.560885 
L 379.051925 304.572355 
L 382.82588 307.647658 
L 386.599836 310.41276 
L 390.373792 312.889412 
L 394.147748 315.099255 
L 397.921704 317.063576 
L 402.114988 318.98337 
L 406.308272 320.65294 
L 410.920885 322.231403 
L 415.533497 323.570883 
L 420.565438 324.79472 
L 426.016708 325.880818 
L 431.887305 326.816469 
L 438.177232 327.598195 
L 439.854545 327.773958 
L 439.854545 327.773958 
" clip-path="url(#p70da0f3c09)" style="fill: none; stroke: #64d8cb; stroke-width: 1.5; stroke-linecap: square"/>
   </g>
  </g>
 </g>
 <defs>
  <clipPath id="p70da0f3c09">
   <rect x="0" y="0" width="460.8" height="345.6"/>
  </clipPath>
 </defs>
</svg>
