<?xml version="1.0" encoding="utf-8" standalone="no"?>
<!DOCTYPE svg PUBLIC "-//W3C//DTD SVG 1.1//EN"
  "http://www.w3.org/Graphics/SVG/1.1/DTD/svg11.dtd">
<svg xmlns:xlink="http://www.w3.org/1999/xlink" width="460.8pt" height="345.6pt" viewBox="0 0 460.8 345.6" xmlns="http://www.w3.org/2000/svg" version="1.1">
 <metadata>
  <rdf:RDF xmlns:dc="http://purl.org/dc/elements/1.1/" xmlns:cc="http://creativecommons.org/ns#" xmlns:rdf="http://www.w3.org/1999/02/22-rdf-syntax-ns#">
   <cc:Work>
    <dc:type rdf:resource="http://purl.org/dc/dcmitype/StillImage"/>
    <dc:date>2025-07-22T17:48:09.890412</dc:date>
    <dc:format>image/svg+xml</dc:format>
    <dc:creator>
     <cc:Agent>
      <dc:title>Matplotlib v3.10.3, https://matplotlib.org/</dc:title>
     </cc:Agent>
    </dc:creator>
   </cc:Work>
  </rdf:RDF>
 </metadata>
 <defs>
  <style type="text/css">*{stroke-linejoin: round; stroke-linecap: butt}</style>
 </defs>
 <g id="figure_1">
  <g id="patch_1">
   <path d="M 0 345.6 
L 460.8 345.6 
L 460.8 0 
L 0 0 
L 0 345.6 
z
" style="fill: none"/>
  </g>
  <g id="axes_1">
   <g id="patch_2">
    <path d="M 49.745455 78.545455 
L 49.745455 329.890909 
Q 49.745455 345.6 65.454545 345.6 
L 316.8 345.6 
Q 332.509091 345.6 321.401086 334.491995 
L 60.853459 73.944368 
Q 49.745455 62.836364 49.745455 78.545455 
" clip-path="url(#pfa99ca8382)" style="fill: #64d8cb"/>
   </g>
   <g id="patch_3">
    <path d="M 363.927273 298.472727 
L 363.927273 47.127273 
Q 363.927273 31.418182 348.218182 31.418182 
L 96.872727 31.418182 
Q 81.163636 31.418182 92.271641 42.526187 
L 352.819268 303.073813 
Q 363.927273 314.181818 363.927273 298.472727 
" clip-path="url(#pfa99ca8382)" style="fill: #64d8cb"/>
   </g>
   <g id="patch_4">
    <path d="M 405.803716 57.687042 
L 405.803716 57.687042 
Q 411.054545 54.981818 405.803716 52.276594 
L 405.803716 52.276594 
Q 400.552886 49.57137 402.352901 43.945591 
L 402.352901 43.945591 
Q 404.152916 38.319811 398.527137 40.119826 
L 398.527137 40.119826 
Q 392.901357 41.919841 390.196133 36.669012 
L 390.196133 36.669012 
Q 387.490909 31.418182 384.785685 36.669012 
L 384.785685 36.669012 
Q 382.080461 41.919841 376.454682 40.119826 
L 376.454682 40.119826 
Q 370.828902 38.319811 372.628917 43.945591 
L 372.628917 43.945591 
Q 374.428932 49.57137 369.178103 52.276594 
L 369.178103 52.276594 
Q 363.927273 54.981818 369.178103 57.687042 
L 369.178103 57.687042 
Q 374.428932 60.392266 372.628917 66.018046 
L 372.628917 66.018046 
Q 370.828902 71.643825 376.454682 69.84381 
L 376.454682 69.84381 
Q 382.080461 68.043795 384.785685 73.294625 
L 384.785685 73.294625 
Q 387.490909 78.545455 390.196133 73.294625 
L 390.196133 73.294625 
Q 392.901357 68.043795 398.527137 69.84381 
L 398.527137 69.84381 
Q 404.152916 71.643825 402.352901 66.018046 
L 402.352901 66.018046 
Q 400.552886 60.392266 405.803716 57.687042 
" clip-path="url(#pfa99ca8382)" style="fill: #64d8cb"/>
   </g>
  </g>
 </g>
 <defs>
  <clipPath id="pfa99ca8382">
   <rect x="49.745455" y="0" width="361.309091" height="345.6"/>
  </clipPath>
 </defs>
</svg>
