<?xml version="1.0" encoding="utf-8" standalone="no"?>
<!DOCTYPE svg PUBLIC "-//W3C//DTD SVG 1.1//EN"
  "http://www.w3.org/Graphics/SVG/1.1/DTD/svg11.dtd">
<svg xmlns:xlink="http://www.w3.org/1999/xlink" width="460.8pt" height="345.6pt" viewBox="0 0 460.8 345.6" xmlns="http://www.w3.org/2000/svg" version="1.1">
 <metadata>
  <rdf:RDF xmlns:dc="http://purl.org/dc/elements/1.1/" xmlns:cc="http://creativecommons.org/ns#" xmlns:rdf="http://www.w3.org/1999/02/22-rdf-syntax-ns#">
   <cc:Work>
    <dc:type rdf:resource="http://purl.org/dc/dcmitype/StillImage"/>
    <dc:date>2025-07-22T18:37:59.308254</dc:date>
    <dc:format>image/svg+xml</dc:format>
    <dc:creator>
     <cc:Agent>
      <dc:title>Matplotlib v3.10.3, https://matplotlib.org/</dc:title>
     </cc:Agent>
    </dc:creator>
   </cc:Work>
  </rdf:RDF>
 </metadata>
 <defs>
  <style type="text/css">*{stroke-linejoin: round; stroke-linecap: butt}</style>
 </defs>
 <g id="figure_1">
  <g id="patch_1">
   <path d="M 0 345.6 
L 460.8 345.6 
L 460.8 0 
L 0 0 
L 0 345.6 
z
" style="fill: none"/>
  </g>
  <g id="axes_1">
   <g id="patch_2">
    <path d="M 65.828571 8.228571 
L 16.457143 8.228571 
Q 0 8.228571 0 24.685714 
L 0 320.914286 
Q 0 337.371429 16.457143 337.371429 
L 65.828571 337.371429 
Q 82.285714 337.371429 82.285714 320.914286 
L 82.285714 24.685714 
Q 82.285714 8.228571 65.828571 8.228571 
" clip-path="url(#p8acb788fce)" style="fill: #64d8cb"/>
   </g>
   <g id="patch_3">
    <path d="M 444.342857 8.228571 
L 148.114286 8.228571 
Q 131.657143 8.228571 131.657143 24.685714 
L 131.657143 74.057143 
Q 131.657143 90.514286 148.114286 90.514286 
L 444.342857 90.514286 
Q 460.8 90.514286 460.8 74.057143 
L 460.8 24.685714 
Q 460.8 8.228571 444.342857 8.228571 
" clip-path="url(#p8acb788fce)" style="fill: #64d8cb"/>
   </g>
  </g>
 </g>
 <defs>
  <clipPath id="p8acb788fce">
   <rect x="0" y="8.228571" width="460.8" height="329.142857"/>
  </clipPath>
 </defs>
</svg>
