<?xml version="1.0" encoding="utf-8" standalone="no"?>
<!DOCTYPE svg PUBLIC "-//W3C//DTD SVG 1.1//EN"
  "http://www.w3.org/Graphics/SVG/1.1/DTD/svg11.dtd">
<svg xmlns:xlink="http://www.w3.org/1999/xlink" width="460.8pt" height="345.6pt" viewBox="0 0 460.8 345.6" xmlns="http://www.w3.org/2000/svg" version="1.1">
 <metadata>
  <rdf:RDF xmlns:dc="http://purl.org/dc/elements/1.1/" xmlns:cc="http://creativecommons.org/ns#" xmlns:rdf="http://www.w3.org/1999/02/22-rdf-syntax-ns#">
   <cc:Work>
    <dc:type rdf:resource="http://purl.org/dc/dcmitype/StillImage"/>
    <dc:date>2025-07-22T17:11:38.061705</dc:date>
    <dc:format>image/svg+xml</dc:format>
    <dc:creator>
     <cc:Agent>
      <dc:title>Matplotlib v3.10.3, https://matplotlib.org/</dc:title>
     </cc:Agent>
    </dc:creator>
   </cc:Work>
  </rdf:RDF>
 </metadata>
 <defs>
  <style type="text/css">*{stroke-linejoin: round; stroke-linecap: butt}</style>
 </defs>
 <g id="figure_1">
  <g id="patch_1">
   <path d="M 0 345.6 
L 460.8 345.6 
L 460.8 0 
L 0 0 
L 0 345.6 
z
" style="fill: none"/>
  </g>
  <g id="axes_1">
   <g id="patch_2">
    <path d="M 66.24 86.4 
L 66.24 86.4 
Q 57.6 86.4 57.6 103.68 
L 57.6 276.48 
Q 57.6 293.76 66.24 293.76 
L 66.24 293.76 
Q 74.88 293.76 74.88 276.48 
L 74.88 103.68 
Q 74.88 86.4 66.24 86.4 
" clip-path="url(#p9c70550646)" style="fill: #64d8cb"/>
   </g>
   <g id="patch_3">
    <path d="M 118.08 86.4 
L 118.08 86.4 
Q 109.44 86.4 109.44 103.68 
L 109.44 276.48 
Q 109.44 293.76 118.08 293.76 
L 118.08 293.76 
Q 126.72 293.76 126.72 276.48 
L 126.72 103.68 
Q 126.72 86.4 118.08 86.4 
" clip-path="url(#p9c70550646)" style="fill: #64d8cb"/>
   </g>
   <g id="patch_4">
    <path d="M 169.92 86.4 
L 169.92 86.4 
Q 161.28 86.4 161.28 103.68 
L 161.28 276.48 
Q 161.28 293.76 169.92 293.76 
L 169.92 293.76 
Q 178.56 293.76 178.56 276.48 
L 178.56 103.68 
Q 178.56 86.4 169.92 86.4 
" clip-path="url(#p9c70550646)" style="fill: #64d8cb"/>
   </g>
   <g id="patch_5">
    <path d="M 403.2 276.48 
L 403.2 103.68 
Q 403.2 86.4 385.92 86.4 
L 213.12 86.4 
Q 195.84 86.4 208.058805 98.618805 
L 390.981195 281.541195 
Q 403.2 293.76 403.2 276.48 
" clip-path="url(#p9c70550646)" style="fill: #64d8cb"/>
   </g>
  </g>
 </g>
 <defs>
  <clipPath id="p9c70550646">
   <rect x="57.6" y="0" width="345.6" height="345.6"/>
  </clipPath>
 </defs>
</svg>
