<?xml version="1.0" encoding="utf-8" standalone="no"?>
<!DOCTYPE svg PUBLIC "-//W3C//DTD SVG 1.1//EN"
  "http://www.w3.org/Graphics/SVG/1.1/DTD/svg11.dtd">
<svg xmlns:xlink="http://www.w3.org/1999/xlink" width="460.8pt" height="345.6pt" viewBox="0 0 460.8 345.6" xmlns="http://www.w3.org/2000/svg" version="1.1">
 <metadata>
  <rdf:RDF xmlns:dc="http://purl.org/dc/elements/1.1/" xmlns:cc="http://creativecommons.org/ns#" xmlns:rdf="http://www.w3.org/1999/02/22-rdf-syntax-ns#">
   <cc:Work>
    <dc:type rdf:resource="http://purl.org/dc/dcmitype/StillImage"/>
    <dc:date>2025-07-22T18:27:30.130181</dc:date>
    <dc:format>image/svg+xml</dc:format>
    <dc:creator>
     <cc:Agent>
      <dc:title>Matplotlib v3.10.3, https://matplotlib.org/</dc:title>
     </cc:Agent>
    </dc:creator>
   </cc:Work>
  </rdf:RDF>
 </metadata>
 <defs>
  <style type="text/css">*{stroke-linejoin: round; stroke-linecap: butt}</style>
 </defs>
 <g id="figure_1">
  <g id="patch_1">
   <path d="M 0 345.6 
L 460.8 345.6 
L 460.8 0 
L 0 0 
L 0 345.6 
z
" style="fill: none"/>
  </g>
  <g id="axes_1">
   <g id="patch_2">
    <path d="M 6.981818 102.981818 
L 6.981818 102.981818 
Q 0 102.981818 0 116.945455 
L 0 256.581818 
Q 0 270.545455 6.981818 270.545455 
L 6.981818 270.545455 
Q 13.963636 270.545455 13.963636 256.581818 
L 13.963636 116.945455 
Q 13.963636 102.981818 6.981818 102.981818 
" clip-path="url(#p4cd17f4a8b)" style="fill: #64d8cb"/>
   </g>
   <g id="patch_3">
    <path d="M 48.872727 102.981818 
L 48.872727 102.981818 
Q 41.890909 102.981818 41.890909 116.945455 
L 41.890909 256.581818 
Q 41.890909 270.545455 48.872727 270.545455 
L 48.872727 270.545455 
Q 55.854545 270.545455 55.854545 256.581818 
L 55.854545 116.945455 
Q 55.854545 102.981818 48.872727 102.981818 
" clip-path="url(#p4cd17f4a8b)" style="fill: #64d8cb"/>
   </g>
   <g id="patch_4">
    <path d="M 90.763636 102.981818 
L 90.763636 102.981818 
Q 83.781818 102.981818 83.781818 116.945455 
L 83.781818 256.581818 
Q 83.781818 270.545455 90.763636 270.545455 
L 90.763636 270.545455 
Q 97.745455 270.545455 97.745455 256.581818 
L 97.745455 116.945455 
Q 97.745455 102.981818 90.763636 102.981818 
" clip-path="url(#p4cd17f4a8b)" style="fill: #64d8cb"/>
   </g>
   <g id="patch_5">
    <path d="M 279.272727 256.581818 
L 279.272727 116.945455 
Q 279.272727 102.981818 265.309091 102.981818 
L 125.672727 102.981818 
Q 111.709091 102.981818 121.582873 112.8556 
L 269.398945 260.671673 
Q 279.272727 270.545455 279.272727 256.581818 
" clip-path="url(#p4cd17f4a8b)" style="fill: #64d8cb"/>
   </g>
   <g id="patch_6">
    <path d="M 446.836364 102.981818 
L 307.2 102.981818 
Q 293.236364 102.981818 293.236364 109.963636 
L 293.236364 109.963636 
Q 293.236364 116.945455 307.2 116.945455 
L 446.836364 116.945455 
Q 460.8 116.945455 460.8 109.963636 
L 460.8 109.963636 
Q 460.8 102.981818 446.836364 102.981818 
" clip-path="url(#p4cd17f4a8b)" style="fill: #64d8cb"/>
   </g>
   <g id="patch_7">
    <path d="M 446.836364 186.763636 
L 307.2 186.763636 
Q 293.236364 186.763636 293.236364 193.745455 
L 293.236364 193.745455 
Q 293.236364 200.727273 307.2 200.727273 
L 446.836364 200.727273 
Q 460.8 200.727273 460.8 193.745455 
L 460.8 193.745455 
Q 460.8 186.763636 446.836364 186.763636 
" clip-path="url(#p4cd17f4a8b)" style="fill: #64d8cb"/>
   </g>
   <g id="patch_8">
    <path d="M 446.836364 256.581818 
L 307.2 256.581818 
Q 293.236364 256.581818 293.236364 263.563636 
L 293.236364 263.563636 
Q 293.236364 270.545455 307.2 270.545455 
L 446.836364 270.545455 
Q 460.8 270.545455 460.8 263.563636 
L 460.8 263.563636 
Q 460.8 256.581818 446.836364 256.581818 
" clip-path="url(#p4cd17f4a8b)" style="fill: #64d8cb"/>
   </g>
  </g>
 </g>
 <defs>
  <clipPath id="p4cd17f4a8b">
   <rect x="0" y="33.163636" width="460.8" height="279.272727"/>
  </clipPath>
 </defs>
</svg>
